PathFileType	4	(X/Y/Z)	OpenSim_Sub01_CSBaseline_Gyro.trc
DataRate	CameraRate	NumFrames	NumMarkers	Units	OrigDataRate	OrigDataStartFrame	OrigNumFrames
100	100	30	8	m	100	2232	5950
Frame#	Time	torso_imu_offset_imu	pelvis_imu_offset_imu	tibia_r_imu_offset_imu	femur_r_imu_offset_imu	tibia_l_imu_offset_imu	femur_l_imu_offset_imu	toes_r_imu_offset_imu	toes_l_imu_offset_imu
				X1	Y1	Z1	X2	Y2	Z2	X3	Y3	Z3	X4	Y4	Z4	X5	Y5	Z5	X6	Y6	Z6	X7	Y7	Z7	X8		Y8	Z8	

2232	22.31000000	-0.00662236	-0.17618664	-0.04417019	0.22109992	-0.04758641	0.03182606	1.93159543	0.53564636	4.08282854	0.24363402	-0.11131520	-0.18509766	0.15010234	-0.02497227	0.80938824	-0.24327534	-0.38700976	0.66483523	0.54559462	2.93900212	1.84034381	0.09017055	-0.21798093	0.06371324
2233	22.32000000	-0.02114723	-0.15995257	-0.03393337	0.23191141	-0.08804460	0.03049302	1.86677582	0.50856715	3.87017055	0.57529144	-0.04188481	-0.18845503	0.23682787	-0.03432620	0.82777639	-0.21810508	-0.36150350	0.68030699	0.47623007	2.66384595	2.02179567	0.10380785	-0.24501631	0.06072407
2234	22.33000000	-0.03348529	-0.14390167	-0.02460942	0.24176488	-0.11994103	0.03462238	1.71900150	0.48227489	3.63408942	0.90244196	0.00720332	-0.18763749	0.29960697	-0.03843252	0.84834792	-0.18479415	-0.34126155	0.68456489	0.43264224	2.42295989	2.20794819	0.11837790	-0.28076588	0.06321887
2235	22.34000000	-0.04174188	-0.12785169	-0.01518238	0.24978509	-0.13971618	0.04157925	1.48585078	0.45111006	3.37074578	1.15664418	0.02770592	-0.20304546	0.33326528	-0.03655602	0.86968323	-0.14537512	-0.32944453	0.67921028	0.41570485	2.20998102	2.33386463	0.13052540	-0.32388508	0.07323211
2236	22.35000000	-0.04527122	-0.11180156	-0.00476323	0.25402419	-0.14538172	0.04814075	1.12648540	0.40464813	3.06843838	1.27499525	0.01856078	-0.26125966	0.34502623	-0.02903760	0.89234170	-0.10434160	-0.32519336	0.66677350	0.40176984	2.00616539	2.31085706	0.13458236	-0.37026739	0.09267098
2237	22.36000000	-0.04399766	-0.09529081	0.00658096	0.25442030	-0.13934138	0.05206849	0.65221223	0.33165130	2.71520713	1.21930222	-0.01231111	-0.36419068	0.34335099	-0.01674005	0.91787997	-0.06819045	-0.32761519	0.64897449	0.33497380	1.79382523	2.09295196	0.12886415	-0.42041323	0.12113438
2238	22.37000000	-0.03908161	-0.07682879	0.01665362	0.25515055	-0.13375328	0.05333762	0.19179567	0.21920450	2.29874114	1.00634685	-0.03715189	-0.45852532	0.33910505	-0.00165950	0.95002265	-0.04781733	-0.33585777	0.62569825	0.08827934	1.55798654	1.73016801	0.12064062	-0.48518192	0.15307451
2239	22.38000000	-0.03177628	-0.05503271	0.02333744	0.26045368	-0.14091054	0.05244561	-0.12598067	0.05841886	1.80944099	0.66447060	-0.03027463	-0.48809636	0.34258653	0.01430295	0.99231168	-0.05235372	-0.34848857	0.59667629	-0.44398602	1.28534762	1.28303681	0.11759902	-0.57543362	0.18228275
2240	22.39000000	-0.02256595	-0.03107210	0.02830824	0.26928371	-0.16087394	0.05218980	-0.33620631	-0.11568730	1.26618928	0.26456120	-0.01508067	-0.44441276	0.35487807	0.03181068	1.04337451	-0.06657352	-0.35802762	0.56261906	-1.04751262	0.97608028	0.78653437	0.11922742	-0.68756712	0.20291773
2241	22.40000000	-0.01147810	-0.00761143	0.03547251	0.27749403	-0.18648973	0.05670155	-0.57022207	-0.24233091	0.70466319	-0.09765506	-0.04383977	-0.34711102	0.37162254	0.05303066	1.09895123	-0.06095046	-0.35345595	0.52482065	-1.32024333	0.63833677	0.26060510	0.12018248	-0.80947225	0.20938367
2242	22.41000000	0.00214751	0.01495727	0.04727532	0.28453142	-0.21090268	0.06528709	-0.87050945	-0.28968707	0.15900007	-0.38155416	-0.14988658	-0.21644786	0.38773773	0.07817172	1.15728296	-0.02049908	-0.32978583	0.48589111	-1.07495448	0.28710094	-0.26549731	0.11626270	-0.93368561	0.20222827
2243	22.42000000	0.02049238	0.04135548	0.06283657	0.29794985	-0.22813167	0.06644806	-1.07850517	-0.29128731	-0.34058291	-0.67017632	-0.32347401	-0.07325270	0.39668053	0.10303024	1.22227453	0.03690928	-0.29558900	0.45135995	-0.60918774	-0.04763027	-0.74131415	0.10595366	-1.06335741	0.19569994
2244	22.43000000	0.04591259	0.07670094	0.08091147	0.32548035	-0.23271257	0.04852316	-1.02874950	-0.28884016	-0.76730814	-1.05114034	-0.54580936	0.06225726	0.39315270	0.12301236	1.29808383	0.09028863	-0.26010732	0.42631507	-0.25869476	-0.34084796	-1.11556392	0.08827872	-1.20239039	0.20451198
2245	22.44000000	0.08044165	0.12305915	0.10113527	0.36535719	-0.22329724	0.01326131	-0.76541631	-0.31717679	-1.12443112	-1.48659164	-0.76489539	0.17698530	0.38674848	0.13565934	1.38357032	0.13239457	-0.22056048	0.40720764	-0.07654645	-0.64000896	-1.35809121	0.06405932	-1.34763045	0.22903931
2246	22.45000000	0.12591436	0.18067488	0.12366429	0.41018946	-0.20098770	-0.02966639	-0.45616436	-0.40690257	-1.43271866	-1.86475156	-0.90925922	0.26194427	0.39579280	0.13978878	1.47447541	0.16408629	-0.16710800	0.38540347	0.05069878	-1.03513592	-1.45132580	0.03517699	-1.49179218	0.26120489
2247	22.46000000	0.18238776	0.24551123	0.14905404	0.44772314	-0.17156721	-0.06818483	-0.23046995	-0.55283850	-1.66937422	-2.09376401	-0.93117632	0.28888853	0.42705371	0.13778970	1.56815700	0.18563669	-0.09666036	0.35429786	0.18479240	-1.57757135	-1.40370730	0.00337435	-1.63428178	0.29429147
2248	22.47000000	0.24595787	0.30403027	0.17873582	0.45501550	-0.15119353	-0.08508326	-0.12905285	-0.67008296	-1.71389479	-2.12835745	-0.83647282	0.18648305	0.46126093	0.13998304	1.66566969	0.19577684	-0.02139483	0.31196106	0.26734932	-2.23112436	-1.28134730	-0.02994645	-1.78955540	0.32485957
2249	22.48000000	0.31151698	0.34284041	0.21385585	0.41032947	-0.15473934	-0.06463392	-0.15783714	-0.67280329	-1.45909835	-1.94491826	-0.64147333	-0.10291024	0.47781770	0.15640665	1.76823601	0.19164981	0.04545634	0.25567269	0.24161725	-2.93073721	-1.15507424	-0.06346629	-1.97392045	0.35046976
2250	22.49000000	0.36706320	0.36333227	0.25139376	0.31930522	-0.16931914	-0.01359220	-0.08750952	-0.57691652	-1.07180531	-1.67834951	-0.39608241	-0.43533787	0.47880518	0.18309583	1.87364856	0.15615830	0.10109493	0.16802033	0.23551354	-3.43561299	-1.06385236	-0.09624732	-2.20177351	0.37442817
2251	22.50000000	0.39656612	0.37560227	0.28587699	0.20370903	-0.16576765	0.04804128	0.44855885	-0.45829771	-0.87973589	-1.55607029	-0.17000674	-0.54862622	0.47973687	0.20782587	1.97767948	0.06391083	0.14891097	0.02305071	0.48495763	-3.40239229	-1.02767729	-0.12756918	-2.48639999	0.40342581
2252	22.51000000	0.39213961	0.38669846	0.31304027	0.08022309	-0.13507110	0.10403818	1.50887741	-0.37901901	-1.05434020	-1.59465694	-0.03145552	-0.32917166	0.50767224	0.21842349	2.07671169	-0.08794061	0.19932106	-0.17843979	1.02734892	-2.72257886	-1.03015905	-0.15513154	-2.84448446	0.44320980
2253	22.52000000	0.36418587	0.39661598	0.33138276	-0.04627958	-0.11364861	0.14696922	2.46049842	-0.36862545	-1.41374780	-1.33757085	-0.04472559	0.00172069	0.61504545	0.20306834	2.16854924	-0.25170427	0.27824140	-0.37572278	1.45402065	-1.81467704	-0.97426869	-0.17310240	-3.30032790	0.49732346
2254	22.53000000	0.32505295	0.40442694	0.33972164	-0.16886839	-0.13946745	0.17069869	2.64220371	-0.44452508	-1.73851275	-0.33465781	-0.25560664	0.19383676	0.84992922	0.15394876	2.25141644	-0.37648469	0.41042064	-0.50743472	1.34862849	-1.13255583	-0.76664641	-0.17626669	-3.87514131	0.56801603
2255	22.54000000	0.28163135	0.40952610	0.33629552	-0.24287586	-0.20301403	0.17015452	2.06678549	-0.54426403	-1.91481119	1.13745485	-0.52429264	0.16633613	1.17992512	0.10414425	2.32589119	-0.44890890	0.58690349	-0.58937100	0.83865647	-0.75903331	-0.46445188	-0.17071110	-4.54759668	0.64725518
2256	22.55000000	0.23760794	0.41149568	0.31901891	-0.20158566	-0.26680401	0.14092990	1.14443203	-0.55861566	-1.89138578	2.37441810	-0.60217980	-0.06155542	1.52519676	0.11069928	2.39392843	-0.47766036	0.77888175	-0.68271248	0.37155761	-0.55818405	-0.21335616	-0.16917119	-5.27099160	0.72095892
2257	22.56000000	0.20003264	0.40931046	0.28945802	-0.02333196	-0.30156060	0.08663793	0.24088322	-0.45012329	-1.67187693	2.88690805	-0.38632008	-0.43861436	1.81285695	0.19734363	2.45506758	-0.45478278	0.96378729	-0.82078606	0.21650581	-0.42446175	-0.09932175	-0.18051786	-5.93922202	0.77834253
2258	22.57000000	0.18355165	0.40058448	0.25733625	0.21239538	-0.29712691	0.02876704	-0.38875770	-0.34281730	-1.38061241	2.67771458	-0.10190018	-0.84510740	1.98689207	0.31278196	2.50341870	-0.33455612	1.13354775	-0.97346006	0.23565883	-0.32641227	-0.07253283	-0.20480726	-6.31437468	0.81615275
2259	22.58000000	0.20229813	0.38296639	0.23326988	0.41827054	-0.24736998	-0.00965796	-0.53542477	-0.36636684	-1.14952361	1.84103910	0.00654236	-1.15861301	1.99877657	0.39834749	2.53366182	-0.07398607	1.28184854	-1.10585346	0.24876490	-0.24441228	-0.06841730	-0.24271899	-6.17802680	0.83630028
2260	22.59000000	0.25449838	0.35636339	0.22569849	0.56737182	-0.16099083	-0.01472072	-0.31078006	-0.48308017	-1.02045647	0.72736996	-0.04694509	-1.32465515	1.85371908	0.42407247	2.55394491	0.28903151	1.40027327	-1.22269691	0.20629437	-0.17747898	-0.05972689	-0.31368177	-5.69708592	0.88348591
2261	22.60000000	0.32898943	0.32201380	0.24175519	0.66840585	-0.05543791	0.02207588	-0.01521846	-0.55682484	-0.98199941	-0.16256747	-0.09610370	-1.32903876	1.58849389	0.37704243	2.58024462	0.66898422	1.47919023	-1.35201392	0.13581198	-0.13559904	-0.04124954	-0.44783269	-5.26472250	1.02731888
